<?xml version="1.0" encoding="UTF-8"?><svg id="Layer_1" xmlns="http://www.w3.org/2000/svg" viewBox="0 0 223.63634 149.09091"><path d="M137.75909,35.04926h61.0047v78.99237h-61.0047c-5.85345,9.34851-13.72083,17.29816-22.99689,23.25549.00006-.00006.00018-.00006.00024-.00012,10.19727,5.60083,21.89587,8.79388,34.32849,8.79388,39.45026,0,71.54541-32.09509,71.54541-71.54541S188.54119,3,149.09094,3c-12.43262,0-24.13123,3.19305-34.32849,8.79388-.00006-.00006-.00018-.00006-.00024-.00012,9.27606,5.95734,17.14343,13.90698,22.99689,23.25549Z" fill="none"/><path d="M24.87255,35.04926h109.28943C121.33422,15.75098,99.40478,3,74.54547,3,35.09515,3,2.99999,35.09515,2.99999,74.54547s32.09515,71.54541,71.54547,71.54541c24.85931,0,46.78876-12.75098,59.61652-32.04926H24.87255V35.04926Z" fill="none"/><path d="M149.09094,0c-13.58282,0-26.30548,3.65082-37.27277,9.99768.9964.57666,1.97748,1.17529,2.94403,1.79608.00006.00006.00018.00006.00024.00012,10.19727-5.60083,21.89587-8.79388,34.32849-8.79388,39.45026,0,71.54541,32.09515,71.54541,71.54547s-32.09515,71.54541-71.54541,71.54541c-12.43262,0-24.13123-3.19305-34.32849-8.79388-.00006.00006-.00018.00006-.00024.00012-.96655.62079-1.94763,1.21942-2.94403,1.79608,10.96729,6.34686,23.68994,9.99768,37.27277,9.99768,41.17029,0,74.54541-33.37506,74.54541-74.54541S190.26122,0,149.09094,0Z" fill="#ea0000"/><path d="M114.7622,137.29712c9.27606-5.95734,17.14343-13.90698,22.99689-23.25549h-3.59711c-12.82776,19.29828-34.7572,32.04926-59.61652,32.04926C35.09515,146.09088,2.99999,113.99573,2.99999,74.54547S35.09515,3,74.54547,3c24.85931,0,46.78876,12.75098,59.61652,32.04926h3.59711c-5.85345-9.34851-13.72083-17.29816-22.99689-23.25549-.96655-.62079-1.94757-1.21942-2.94403-1.79608h0C100.85089,3.65082,88.12829,0,74.54547,0,33.37512,0,0,33.37512,0,74.54547s33.37512,74.54541,74.54547,74.54541c13.58282,0,26.30542-3.65082,37.27271-9.99768h0c.99646-.57666,1.97748-1.17529,2.94403-1.79608Z"/><path d="M111.81817,139.0932h0c.9964-.57666,1.97748-1.17529,2.94403-1.79608-.96655.62079-1.94757,1.21942-2.94403,1.79608Z"/><path d="M114.7622,11.79376c-.96655-.62079-1.94763-1.21942-2.94403-1.79608h0c.99646.57666,1.97748,1.17529,2.94403,1.79608Z"/><path d="M54.3849,69.23964v-.41556c.08299,0,.2839-.02745.60212-.08361.31822-.05491.65079-.151.99771-.29077.34567-.13727.65017-.33195.9141-.58153.26269-.24958.39434-.56656.39434-.95591,0-.24958-.07675-.65703-.22837-1.22484-.15287-.56781-.36751-1.2604-.64393-2.07779-.27704-.81677-.59588-1.72401-.95591-2.72172-.36003-.99709-.74751-2.03536-1.16306-3.11606h-11.05223c-.41556,1.05325-.81739,2.05658-1.20487,3.01249-.3881.95591-.77621,1.91868-1.16369,2.88769-.58153,1.49564-.8723,2.54888-.8723,3.15787,0,.36065.11044.65766.33257.89351.22088.23586.50479.42929.85171.58153.34567.15225.72005.26331,1.12188.33195.40121.06988.78182.13228,1.14247.18719v.41556h-8.85027v-.45674c.72068-.08361,1.3359-.27704,1.8488-.58153.51227-.30449.81053-.5129.89351-.62396.19343-.19343.51227-.65017.95591-1.37084.44239-.72005.98274-1.7864,1.62043-3.19905.58153-1.30221,1.2317-2.78412,1.95238-4.44635.72005-1.66161,1.46069-3.37189,2.22318-5.13084.76123-1.75895,1.51623-3.53225,2.26436-5.31865s1.45445-3.45488,2.11897-5.00667l-.41556-.9141c.49855-.22151.94842-.48419,1.35025-.78931.40121-.30449.75437-.62334,1.05949-.95591.30449-.33257.56094-.65017.76872-.95529.20778-.30449.36689-.55408.47795-.74813h.33257c.85795,2.2993,1.67534,4.48067,2.45155,6.54411.77496,2.06407,1.51623,4.05076,2.22255,5.96258.70632,1.91119,1.39206,3.75999,2.05658,5.5464.66514,1.78703,1.32966,3.55284,1.99481,5.29806.30449.85857.58777,1.57238.85171,2.13956.26269.56781.56094,1.21173.89351,1.93179.05491.11107.1797.30512.37375.58153.19343.27704.44988.56157.76872.85233.31822.29077.71256.54659,1.18428.76872.47047.22213,1.02392.34692,1.66161.37313v.49917h-12.13231ZM48.94209,44.06091c-.1666.36003-.40932.92783-.72754,1.70342-.31884.77558-.71319,1.71777-1.18366,2.8253-.47172,1.10816-.99085,2.3617-1.55866,3.75999-.56781,1.39892-1.18366,2.91577-1.8488,4.54993h10.34591c-.47109-1.24668-.94905-2.49335-1.43324-3.7394-.48544-1.24668-.95591-2.44468-1.41265-3.59402-.45736-1.14934-.87292-2.20258-1.24668-3.15787-.37375-.95591-.68573-1.73773-.93469-2.34734Z"/><path d="M92.31928,69.23964h-25.42831v-.41556c.69197-.10982,1.3359-.29077,1.93241-.54035.59526-.24958,1.08632-.59526,1.47505-1.03827.1379-.16597.24896-.40807.33195-.72754.08299-.3176.15911-.68511.22899-1.10067.06864-.41556.1173-.85171.14538-1.30907.02683-.45674.04118-.90662.04118-1.35025,0-.38748.00686-.9141.02059-1.57862.01373-.66514.02745-1.39206.04181-2.18137.01373-.78994.02059-1.59984.02059-2.43095v-10.51188c0-.49855-.00686-1.01082-.02059-1.53744-.01435-.526-.04181-1.02455-.08299-1.49564-.04181-.47109-.11107-.89351-.20778-1.26727-.09734-.37438-.22837-.64393-.39497-.81053-.41556-.44239-.85857-.72692-1.32966-.85171s-1.08008-.2421-1.82821-.35316v-.41556h22.93558l2.8253,6.85609-.41556.20778c-2.24377-2.79784-4.34901-4.68096-6.31512-5.65122-.47172-.22088-1.34401-.41556-2.61752-.58153-1.27475-.16597-2.82592-.24896-4.65413-.24896-.58153,0-1.18366.02059-1.80699.06177-.62334.04181-1.07384.09047-1.35025.14538-.05616.44364-.1042,1.35774-.14538,2.74231-.04181,1.38582-.0624,2.9919-.0624,4.8201v2.65932c0,.72068.00624,1.30845.02059,1.76581.01373.45674.02059.8099.02059,1.05949v.45674h.83112c.41556,0,.89351-.01373,1.43324-.04118.54035-.02745,1.0807-.0624,1.62043-.1042.54035-.04118.99023-.10358,1.35088-.18719.83049-.19343,1.52309-.45674,2.07717-.78931.55408-.33195,1.00395-.73316,1.35025-1.20487.3463-.47047.62334-1.01768.83112-1.64102s.39497-1.3228.56094-2.09838h.49855v13.08822h-.49855c-.22213-.88603-.56094-1.80013-1.01768-2.74231-.45736-.94156-.93532-1.64788-1.43386-2.11897-.44301-.38748-.9765-.70632-1.59984-.95591-.62271-.24896-1.35025-.40121-2.18075-.45674-.41556-.02745-.76248-.04805-1.0389-.0624-.27766-.01373-.5547-.02059-.83112-.02059h-1.91119c-.05616.3881-.08299.95529-.08299,1.70342v4.98608c0,.44301.00624.86606.02059,1.26727.01373.40183.02059.74127.02059,1.01768.02745.88665.07612,1.72463.14538,2.51394.06926.78994.22899,1.37771.47795,1.76581.24958.3881.84484.66514,1.7864.83112s1.96673.24958,3.07488.24958c.47047,0,1.07321-.01373,1.80762-.04243.73378-.02745,1.50188-.09609,2.30616-.20716.88603-.11107,1.70342-.32571,2.45092-.64393.74813-.31822,1.46818-.76872,2.16078-1.35088.69197-.58153,1.36398-1.2941,2.0154-2.13956.65017-.84484,1.32217-1.86253,2.01477-3.05367l.45736.12417-2.07779,7.93617Z"/><path d="M128.13468,59.35109c-.49855,1.57862-1.17742,2.93636-2.03599,4.07135-.85857,1.13623-1.85566,2.07779-2.99127,2.82592-1.13623.74751-2.3411,1.34401-3.61461,1.78578-1.27475.44426-2.59069.75499-3.94718.93594-1.35774.1797-2.67368.26955-3.94718.26955h-15.16601v-.41556c.69197-.08361,1.36398-.26331,2.0154-.54035.65017-.27579,1.14247-.60899,1.47505-.99709.1379-.13852.2421-.37438.31136-.70632.06864-.33195.13103-.70632.18719-1.12188.05491-.41556.09671-.85795.12479-1.32966.02683-.47047.04118-.92721.04118-1.37084,0-.38748.00686-.9141.02059-1.57862.01373-.66514.02745-1.39206.04181-2.18137.01373-.78994.02059-1.59984.02059-2.43095v-12.00752c0-.49855-.02059-.96215-.0624-1.39206-.04118-.42929-.10358-.81677-.18656-1.16369-.08299-.34567-.20778-.61585-.37375-.8099-.41556-.49855-.9141-.84484-1.49626-1.0389-.58153-.19343-1.23295-.33257-1.95238-.41556v-.41556c1.16306,0,2.83903-.00624,5.02726-.02059,2.18761-.01373,4.83321-.02059,7.93617-.02059h2.6587c.9141,0,1.82821.04118,2.74231.12417.9141.08361,1.82821.22213,2.74231.41556.9141.19405,1.81386.48544,2.70113.87292,1.16306.49855,2.25687,1.13623,3.28204,1.91119,1.02455.77558,1.91806,1.69718,2.67992,2.7629.76186,1.06697,1.37147,2.2993,1.82821,3.69822.45736,1.39892.68573,2.99876.68573,4.79889,0,2.07717-.24958,3.90538-.74813,5.48462ZM123.02444,49.25414c-.49855-1.52309-1.19177-2.90142-2.07779-4.13375-.88665-1.23232-1.93927-2.27808-3.15787-3.13728-1.21922-.85795-2.54826-1.41265-3.98836-1.66223-.5547-.10982-1.16369-.20029-1.82821-.26955-.66514-.06926-1.48253-.1042-2.45155-.1042-.33257,0-.6926.00749-1.08008.02059-.38873.01435-.76872.04181-1.1431.08361-.37375.04118-.72005.07612-1.03827.10358-.31884.02808-.57529.06926-.76872.12479-.13914,1.35712-.22213,3.22713-.24958,5.60879-.02745,2.38291-.04118,5.22194-.04118,8.5177v4.86129c0,1.44073.01373,2.61814.04118,3.53225,0,.3881.02121.8099.0624,1.26727.04181.45674.08985.90038.14538,1.32904.05553.42991.14538.81739.27018,1.16431.12479.34567.27018.6015.43615.76747.55408.55533,1.25292.90849,2.09838,1.05949.84484.15349,1.64102.22962,2.38915.22962.69197,0,1.40579-.03494,2.13956-.10483.73378-.06864,1.41951-.19967,2.0572-.39434,2.99127-.85857,5.22755-2.52704,6.71008-5.00667,1.48129-2.479,2.22255-5.53267,2.22255-9.16163,0-1.60608-.24896-3.1716-.74751-4.69531Z"/><path d="M157.26059,69.23964h-25.42831v-.41556c.69197-.10982,1.3359-.29077,1.93241-.54035.59526-.24958,1.08632-.59526,1.47505-1.03827.1379-.16597.24896-.40807.33195-.72754.08299-.3176.15911-.68511.22899-1.10067.06864-.41556.1173-.85171.14538-1.30907.02683-.45674.04118-.90662.04118-1.35025,0-.38748.00686-.9141.02059-1.57862.01373-.66514.02745-1.39206.04181-2.18137.01373-.78994.02059-1.59984.02059-2.43095v-10.51188c0-.49855-.00686-1.01082-.02059-1.53744-.01435-.526-.04181-1.02455-.08299-1.49564-.04181-.47109-.11107-.89351-.20778-1.26727-.09734-.37438-.22837-.64393-.39497-.81053-.41556-.44239-.85857-.72692-1.32966-.85171s-1.08008-.2421-1.82821-.35316v-.41556h22.93558l2.8253,6.85609-.41556.20778c-2.24377-2.79784-4.34901-4.68096-6.31512-5.65122-.47172-.22088-1.34401-.41556-2.61752-.58153-1.27475-.16597-2.82592-.24896-4.65413-.24896-.58153,0-1.18366.02059-1.80699.06177-.62334.04181-1.07384.09047-1.35025.14538-.05616.44364-.1042,1.35774-.14538,2.74231-.04181,1.38582-.0624,2.9919-.0624,4.8201v2.65932c0,.72068.00624,1.30845.02059,1.76581.01373.45674.02059.8099.02059,1.05949v.45674h.83112c.41556,0,.89351-.01373,1.43324-.04118.54035-.02745,1.0807-.0624,1.62043-.1042.54035-.04118.99023-.10358,1.35088-.18719.83049-.19343,1.52309-.45674,2.07717-.78931.55408-.33195,1.00395-.73316,1.35025-1.20487.3463-.47047.62334-1.01768.83112-1.64102s.39497-1.3228.56094-2.09838h.49855v13.08822h-.49855c-.22213-.88603-.56094-1.80013-1.01768-2.74231-.45736-.94156-.93532-1.64788-1.43386-2.11897-.44301-.38748-.9765-.70632-1.59984-.95591-.62271-.24896-1.35025-.40121-2.18075-.45674-.41556-.02745-.76248-.04805-1.0389-.0624-.27766-.01373-.5547-.02059-.83112-.02059h-1.91119c-.05616.3881-.08299.95529-.08299,1.70342v4.98608c0,.44301.00624.86606.02059,1.26727.01373.40183.02059.74127.02059,1.01768.02745.88665.07612,1.72463.14538,2.51394.06926.78994.22899,1.37771.47795,1.76581.24958.3881.84484.66514,1.7864.83112s1.96673.24958,3.07488.24958c.47047,0,1.07321-.01373,1.80762-.04243.73378-.02745,1.50188-.09609,2.30616-.20716.88603-.11107,1.70342-.32571,2.45092-.64393.74813-.31822,1.46818-.76872,2.16078-1.35088.69197-.58153,1.36398-1.2941,2.0154-2.13956.65017-.84484,1.32217-1.86253,2.01477-3.05367l.45736.12417-2.07779,7.93617Z"/><path d="M186.42831,41.54697c-1.07945.90038-2.22942,2.08466-3.44801,3.55221-.47109.5547-.99085,1.17804-1.55803,1.87001-.56843.6926-1.14247,1.3852-1.72463,2.07717-.58153.6926-1.13561,1.3646-1.66161,2.0154-.52662.65079-.99709,1.22546-1.41265,1.72401.11044.1666.34567.49855.70632.99771.3594.49855.77496,1.09443,1.24605,1.7864.47109.6926.98336,1.43324,1.53744,2.22255.55408.78994,1.08694,1.54493,1.59984,2.26498.51227.72068.9765,1.37084,1.39206,1.95238.41556.58216.72005,1.02517.9141,1.32966.55345.80366,1.05949,1.52371,1.51623,2.16078.45736.63769.90662,1.18366,1.34963,1.64164.44301.45674.89975.83112,1.37147,1.12188.47047.29077.99709.47671,1.57862.56032v.41556h-13.46135v-.41556c.38748-.05491.80304-.1173,1.24668-.18719.44239-.06864.85795-.17221,1.24668-.31073.38748-.13852.70632-.3332.95529-.58278.24958-.24834.37375-.56656.37375-.95466s-.18032-.90724-.53973-1.55866c-.36065-.65017-.77621-1.3359-1.24668-2.05658-.63769-.99709-1.3646-2.08403-2.18137-3.26145-.81739-1.17742-1.75208-2.49959-2.80471-3.9684-.44301.52662-.92846,1.10816-1.45383,1.74522-.52662.63769-1.05325,1.28162-1.57925,1.93179-.52662.65142-1.03203,1.28162-1.51623,1.8906-.48544.60961-.89351,1.14996-1.22608,1.62043-.3881.5547-.7344,1.10816-1.03827,1.66223-.30574.55408-.45736,1.08008-.45736,1.57862,0,.38873.12479.72692.37375,1.01768.24958.29077.56781.53411.95591.72754.38748.19468.80304.34692,1.24668.45674.44239.11107.85795.19468,1.24605.24958v.41556h-11.01043v-.41556c1.10753-.30449,2.25749-.90724,3.44864-1.80699,1.19052-.90038,2.40974-2.0572,3.65642-3.46985.41556-.47047.92783-1.07321,1.53744-1.80699.60899-.73378,1.24605-1.49626,1.91119-2.28557.66452-.78931,1.30158-1.55803,1.91119-2.30616.60899-.74751,1.12188-1.37084,1.53744-1.86939-.1666-.22151-.54721-.75437-1.14247-1.59984-.59651-.84484-1.26727-1.79327-2.0154-2.84589s-1.4894-2.09838-2.22318-3.13728-1.3228-1.86253-1.76581-2.47214c-.58153-.80304-1.10067-1.50936-1.55803-2.11897-.45674-.60899-.90038-1.12812-1.32966-1.55803-.42929-.42929-.88665-.78931-1.37084-1.0807-.48482-.29077-1.04576-.53286-1.68282-.72692v-.41556h13.54496v.41556c-.36003.02808-.77558.08299-1.24605.1666-.47172.08299-.901.19405-1.28848.33195-.3881.13914-.72068.33257-.99709.58153-.27704.24958-.41556.56843-.41556.95591,0,.3881.19343.90038.58153,1.53744.3881.63769.83112,1.31594,1.32966,2.03599.69197.99709,1.39892,2.01477,2.11897,3.05367s1.59297,2.29244,2.61814,3.76062c.9141-1.05262,1.8488-2.20258,2.80408-3.44864.95591-1.24668,1.79327-2.32675,2.51394-3.24086.33257-.44301.69197-.99771,1.08008-1.66223s.58216-1.2186.58216-1.66223c0-.38748-.13166-.72005-.39497-.99709-.26331-.27642-.58153-.51227-.95529-.70632-.37438-.19343-.78307-.34567-1.22608-.45674-.44301-.11044-.84547-.19343-1.20487-.24958v-.41556h10.84445v.41556c-1.41265.30512-2.65932.90786-3.74003,1.80762Z"/><path d="M54.87971,109.84832v-.4218c.08548,0,.29139-.0287.61772-.08486s.66702-.15474,1.02205-.29576.66702-.33819.93719-.59152c.26955-.25333.40433-.57654.40433-.97088,0-.25333-.07862-.66889-.23399-1.24543-.15661-.57779-.37687-1.28162-.66015-2.11273-.2839-.82987-.61086-1.75208-.97962-2.7654-.36939-1.01331-.76685-2.0703-1.19239-3.16723h-11.32865c-.42617,1.06947-.83798,2.09027-1.23482,3.06116-.39809.97213-.79555,1.9505-1.19301,2.93512-.59588,1.51997-.89414,2.59069-.89414,3.20966,0,.36689.11294.66889.34068.90849.22712.2396.51789.43677.87292.59152s.73815.26706,1.14996.33694c.41119.07113.80179.13478,1.17118.19093v.4218h-9.07116v-.46423c.73877-.08486,1.3696-.28203,1.89497-.59152s.83049-.52038.91598-.63395c.19842-.19592.52475-.6614.97962-1.39268.45362-.73253,1.00707-1.81698,1.66099-3.25209.59588-1.32405,1.2629-2.83029,2.00167-4.51873.73752-1.68969,1.49688-3.42805,2.27808-5.21632.78058-1.78703,1.55491-3.58903,2.32114-5.406.76685-1.81573,1.49064-3.51166,2.17201-5.08903l-.42554-.92846c.51102-.22463.97213-.49293,1.38395-.80241.41119-.30949.77309-.63395,1.08569-.97213.3126-.33694.57529-.66015.78806-.97088.21277-.30949.37625-.56281.48981-.75999h.34068c.87979,2.33736,1.71777,4.55492,2.51269,6.65143.79493,2.09776,1.55491,4.11815,2.27871,6.05992.7238,1.94302,1.42638,3.82239,2.10837,5.63812.68137,1.81698,1.36273,3.61149,2.0441,5.38479.31198.87355.60275,1.59859.87292,2.17513.26955.57779.57467,1.2317.91598,1.96423.05616.11231.18407.30949.38311.59027.19842.28203.46111.5703.78806.86606.32571.29576.73066.55657,1.21361.7812.48232.22587,1.05013.35316,1.70342.38062v.50666h-12.43618ZM49.30086,84.2559c-.17034.36564-.4193.94343-.74501,1.73087-.32696.78869-.73191,1.74584-1.21423,2.87272-.48295,1.12563-1.01519,2.39976-1.59672,3.82114-.58278,1.42263-1.21423,2.96382-1.8956,4.6248h10.60485c-.48295-1.26664-.97276-2.53453-1.46943-3.80117-.4973-1.26664-.97962-2.48462-1.44822-3.65267-.46797-1.16806-.89414-2.23877-1.27725-3.20966-.38374-.97213-.70258-1.76706-.95841-2.38603Z"/><path d="M99.44929,80.66563c-.63894.39434-1.12875.99959-1.46943,1.81573-.19904.42305-.32696,1.20425-.38311,2.34485-.0574,1.13935-.11418,2.35733-.17034,3.65267-.0574,1.21049-.1067,2.63936-.14913,4.28662s-.06364,3.41432-.06364,5.29993v2.703c0,.98586.00624,1.99169.02121,3.01997.01373,1.02829.02121,2.04784.02121,3.06116v2.74543c0,.11231-.03619.20466-.1067.27454-.07113.06988-.17783.10607-.31947.10607-.22712,0-.48295-.14102-.76622-.42305-2.41411-2.75916-4.6142-5.29244-6.60151-7.6011-1.98794-2.30866-3.88291-4.51249-5.68554-6.61025-1.80325-2.09651-3.57093-4.1456-5.30243-6.14477-1.73212-1.99793-3.56345-4.06823-5.49398-6.20842v17.82284c0,1.43511.03557,2.73046.1067,3.88479.07051,1.15558.24834,2.01415.53224,2.57696.31198.64767.80179,1.13311,1.46943,1.45633.66639.32446,1.58237.55657,2.74668.69759v.4218h-10.47694v-.4218c.68199-.08486,1.36336-.26082,2.04472-.52787.68137-.2683,1.22047-.71132,1.61793-1.33029.39746-.59152.65329-1.46381.76685-2.61939.11294-1.15433.19842-2.53328.25582-4.13811.05616-1.21049.09859-2.63936.12729-4.28662.02808-1.64726.04305-3.41432.04305-5.29993v-5.15268c0-.56281-.01498-1.25292-.04305-2.06906-.08486-.81614-.2839-1.48503-.59588-2.00666-.31323-.52038-.68137-.92846-1.10753-1.22421-.42554-.29576-.8879-.50666-1.38395-.63395-.4973-.12604-.97276-.21714-1.427-.27454v-.4218h8.64561l20.18703,23.39607v-14.35861c0-1.12563-.01435-2.20258-.04243-3.23087-.0287-1.02704-.15661-1.83694-.38311-2.42846-.28453-.78744-.78806-1.42887-1.51186-1.9218-.72442-.49168-1.76768-.83736-3.13042-1.03453v-.4218h10.5618v.4218c-1.05075.14102-1.89497.40807-2.53391.80241Z"/><path d="M105.17726,109.84832v-.4218c.70944-.11231,1.3696-.29576,1.98045-.54909.61023-.25333,1.12812-.61897,1.55429-1.09817.14164-.16972.24834-.40807.31947-.7188.07051-.30949.12791-.67513.17034-1.09692.04243-.42305.07051-.86606.08486-1.33029.01435-.46548.02184-.92222.02184-1.37272,0-.39434.00624-.9297.02121-1.60483.01373-.67637.02745-1.41515.04243-2.21756.01373-.80241.02121-1.62604.02121-2.47089v-12.20469c0-.50666-.02121-.97837-.06364-1.41515-.04305-.43553-.1067-.82987-.19156-1.18178-.08548-.35191-.21339-.62646-.38374-.82363-.39809-.4792-.88727-.82363-1.46943-1.03453-.58216-.21215-1.24231-.3594-1.97983-.44426v-.4218h12.73381v.4218c-.59651.08486-1.23482.2396-1.91681.46423-.68137.22587-1.20674.67637-1.5755,1.3515-.25582.4792-.3906,1.08445-.40433,1.81698-.01498.73253-.03619,1.42138-.06427,2.06906,0,.70383-.00749,1.40017-.02121,2.09027-.01435.6901-.02121,1.38769-.02121,2.09027v14.14771c0,.81739.01373,1.60483.04243,2.36481.02808.76123.15599,1.29534.38311,1.60483.34131.4792.87979.84484,1.61856,1.09817.73815.25333,1.40579.40932,2.00167.46548v.4218h-12.90415Z"/><path d="M146.44484,109.84832v-.46423c1.22047-.05616,2.24252-.30949,3.06677-.75999.82301-.4505,1.37646-.97213,1.66099-1.56365.17034-.36564.29825-.82238.38311-1.37147.08548-.54909.14164-1.10566.17034-1.66847.05678-1.85816.08548-3.63271.08548-5.32115v-17.1889c-.93719,2.08403-1.79639,3.99835-2.57696,5.74419-.7812,1.74584-1.55429,3.44801-2.32114,5.109-.76622,1.66223-1.54056,3.35816-2.32114,5.08903-.7812,1.73212-1.63977,3.64019-2.57634,5.72298-.14226.28203-.34068.72504-.59651,1.33029-.2552.60524-.51102,1.22421-.76622,1.85816-.25582.63395-.4973,1.21049-.72442,1.73212-.22712.52038-.36939.86481-.42554,1.03453h-.25582c-.90911-2.08403-1.81011-4.15309-2.70425-6.20842s-1.76768-4.03329-2.61939-5.93388-1.64663-3.68013-2.38478-5.34236c-.73877-1.66099-1.40516-3.13853-2.00167-4.43387s-1.08632-2.37979-1.46943-3.25209-.6458-1.46381-.78806-1.77455c0,1.85941-.00686,3.49918-.02121,4.92056-.01435,1.42263-.0287,2.82904-.04243,4.22297-.01435,1.39393-.02121,2.86523-.02121,4.41391v5.406c0,1.3228.04243,2.46964.12791,3.44177.08486.97088.29763,1.78827.63894,2.44967.34068.6614.85795,1.18178,1.55429,1.5624.69509.37937,1.6535.65391,2.87459.82363v.4218h-11.11588v-.4218c.99397-.19717,1.80325-.48669,2.42784-.86606.62396-.38062,1.12126-.90849,1.49064-1.58361.36876-.67637.63894-1.51373.80928-2.51332.17034-.99834.26955-2.21756.29825-3.65267.05616-1.21049.09859-2.63936.12729-4.28662.02808-1.64726.04305-3.41432.04305-5.29993v-5.32115c0-.56281-.01498-1.25292-.04305-2.0703-.0287-.78744-.19904-1.42762-.51102-1.92055-.3126-.49293-.68137-.87979-1.10691-1.16182-.42617-.28078-.88041-.48544-1.36336-.61273-.48295-.12604-.89414-.21714-1.23482-.27454v-.4218h9.07116l10.17931,22.97427c1.24855-2.6743,2.46964-5.33487,3.66203-7.98172,1.19301-2.64685,2.26436-5.04036,3.2159-7.1793.95092-2.14019,1.73149-3.92098,2.34235-5.34236.61023-1.42138.95841-2.24501,1.04326-2.47089h9.07178v.4218c-1.16494.0287-2.05159.2683-2.66182.71756-.61148.45175-1.02954.98586-1.25666,1.60483-.17034.4792-.2839,1.22546-.34068,2.23877-.0574,1.01331-.09983,2.0129-.12791,2.99876-.0287,1.3515-.04243,2.66057-.04243,3.92722v8.40476c0,1.49252.01373,3.06864.04243,4.72963,0,.53536.03557,1.07696.1067,1.62604.07051.54909.19156.97837.3619,1.28786.02808.0574.13415.18968.31947.40183.18407.2109.44738.43677.78806.67513.34068.2396.76622.4505,1.27725.63395s1.10753.28827,1.7889.31697v.4218h-14.60819Z"/><path d="M181.32492,109.84832v-.4218c.08548,0,.29139-.0287.61772-.08486s.66702-.15474,1.02205-.29576.66702-.33819.93719-.59152c.26955-.25333.40433-.57654.40433-.97088,0-.25333-.07862-.66889-.23399-1.24543-.15661-.57779-.37687-1.28162-.66015-2.11273-.2839-.82987-.61086-1.75208-.97962-2.7654-.36939-1.01331-.76685-2.0703-1.19239-3.16723h-11.32865c-.42617,1.06947-.83798,2.09027-1.23482,3.06116-.39809.97213-.79555,1.9505-1.19301,2.93512-.59588,1.51997-.89414,2.59069-.89414,3.20966,0,.36689.11294.66889.34068.90849.22712.2396.51789.43677.87292.59152s.73815.26706,1.14996.33694c.41119.07113.80179.13478,1.17118.19093v.4218h-9.07116v-.46423c.73877-.08486,1.3696-.28203,1.89497-.59152s.83049-.52038.91598-.63395c.19842-.19592.52475-.6614.97962-1.39268.45362-.73253,1.00707-1.81698,1.66099-3.25209.59588-1.32405,1.2629-2.83029,2.00167-4.51873.73752-1.68969,1.49688-3.42805,2.27808-5.21632.78058-1.78703,1.55491-3.58903,2.32114-5.406.76685-1.81573,1.49064-3.51166,2.17201-5.08903l-.42554-.92846c.51102-.22463.97213-.49293,1.38395-.80241.41119-.30949.77309-.63395,1.08569-.97213.3126-.33694.57529-.66015.78806-.97088.21277-.30949.37625-.56281.48981-.75999h.34068c.87979,2.33736,1.71777,4.55492,2.51269,6.65143.79493,2.09776,1.55491,4.11815,2.27871,6.05992.7238,1.94302,1.42638,3.82239,2.10837,5.63812.68074,1.81698,1.36211,3.61149,2.04347,5.38479.31198.87355.60275,1.59859.87355,2.17513.26955.57779.57404,1.2317.91598,1.96423.05616.11231.18344.30949.38311.59027.19842.28203.46048.5703.78744.86606.32571.29576.73128.55657,1.21423.7812.4817.22587,1.0495.35316,1.70342.38062v.50666h-12.43618ZM175.74608,84.2559c-.17034.36564-.4193.94343-.74501,1.73087-.32696.78869-.73191,1.74584-1.21423,2.87272-.48295,1.12563-1.01519,2.39976-1.59672,3.82114-.58278,1.42263-1.21423,2.96382-1.8956,4.6248h10.60485c-.48295-1.26664-.97276-2.53453-1.46943-3.80117-.4973-1.26664-.97962-2.48462-1.44822-3.65267-.46797-1.16806-.89414-2.23877-1.27725-3.20966-.38374-.97213-.70258-1.76706-.95841-2.38603Z"/></svg>